<svg width="218" height="218" viewBox="0 0 218 218" fill="none" xmlns="http://www.w3.org/2000/svg">
<g clip-path="url(#clip0_35_14)">
<path d="M117.912 37.475L86.4117 128.1H149.787L117.912 37.475ZM37.2867 195.6C38.37 193.1 39.495 190.475 40.6617 187.725C41.8283 184.975 43.0783 181.892 44.4117 178.475C45.8283 174.975 47.37 171.017 49.0367 166.6C50.7033 162.183 52.62 157.058 54.7867 151.225L104.787 13.1L131.662 13.1L181.662 151.225C183.745 157.058 185.62 162.183 187.287 166.6C188.953 171.017 190.495 174.975 191.912 178.475C193.328 181.892 194.62 184.975 195.787 187.725C196.953 190.475 198.078 193.1 199.162 195.6H173.537L156.537 147.475H79.6617L62.9117 195.6H37.2867Z" fill="#2196F3"/>
<path d="M96.8383 53.4668L65.3383 144.092H128.713L96.8383 53.4668ZM16.2133 211.592C17.2966 209.092 18.4216 206.467 19.5883 203.717C20.755 200.967 22.005 197.883 23.3383 194.467C24.755 190.967 26.2966 187.008 27.9633 182.592C29.63 178.175 31.5466 173.05 33.7133 167.217L83.7133 29.0918H110.588L160.588 167.217C162.672 173.05 164.547 178.175 166.213 182.592C167.88 187.008 169.422 190.967 170.838 194.467C172.255 197.883 173.547 200.967 174.713 203.717C175.88 206.467 177.005 209.092 178.088 211.592H152.463L135.463 163.467H58.5883L41.8383 211.592H16.2133Z" fill="#F44336"/>
<path d="M107.012 44.3286L75.5116 134.954H138.887L107.012 44.3286ZM26.3866 202.454C27.47 199.954 28.595 197.329 29.7616 194.579C30.9283 191.829 32.1783 188.745 33.5116 185.329C34.9283 181.829 36.47 177.87 38.1366 173.454C39.8033 169.037 41.72 163.912 43.8866 158.079L93.8866 19.9536H120.762L170.762 158.079C172.845 163.912 174.72 169.037 176.387 173.454C178.053 177.87 179.595 181.829 181.012 185.329C182.428 188.745 183.72 191.829 184.887 194.579C186.053 197.329 187.178 199.954 188.262 202.454H162.637L145.637 154.329H68.7616L52.0116 202.454H26.3866Z" fill="#202733"/>
</g>
<defs>
<clipPath id="clip0_35_14">
<rect width="218" height="218" fill="white"/>
</clipPath>
</defs>
</svg>
